<svg width="354" height="356" viewBox="0 0 354 356" fill="none" xmlns="http://www.w3.org/2000/svg">
<g clip-path="url(#clip0)">
<path d="M3.47791 219.56C3.5434 219.729 3.59994 219.901 3.64728 220.076C6.22653 230.617 9.75546 240.901 14.1905 250.801C22.4858 269.502 34.094 286.539 48.4515 301.086C59.3699 312.105 71.5528 321.788 84.7449 329.929C107.58 344.192 133.436 352.877 160.229 355.284C162.703 355.509 165.189 355.709 167.675 355.8C171.305 355.929 174.934 355.996 178.563 356C180.668 356 182.798 355.854 184.878 355.751C186.959 355.648 188.98 355.509 191.03 355.387C190.936 355.292 190.807 355.237 190.673 355.236C187.607 355.236 184.546 355.236 181.479 355.053C179.235 354.902 176.997 354.738 174.759 354.532C171.898 354.259 169.067 353.858 166.23 353.415C161.79 352.724 157.398 351.801 153.037 350.715C140.325 347.51 127.964 343.038 116.139 337.368C90.9679 325.431 68.047 309.215 48.391 289.437C37.9684 279.093 28.69 267.651 20.7173 255.308C15.2106 246.803 10.5661 237.767 6.85319 228.334C5.87932 225.834 5.03852 223.28 4.15538 220.744C3.99811 220.307 3.98601 219.791 3.47791 219.56ZM3.39927 218.851L3.47791 219.548C3.52025 219.324 3.67752 219.093 3.39927 218.851ZM3.19966 217.637H3.12707V217.734L3.19966 217.637ZM13.3074 106.959V107.001H13.3376H13.3013L13.3074 106.959ZM13.2348 106.953L13.3013 107.001V106.874C13.3013 106.874 13.2469 106.947 13.2529 106.953H13.2348ZM13.0533 107.881L13.3618 107.026H13.3255C13.1982 107.119 13.1034 107.25 13.0545 107.4C13.0057 107.551 13.0052 107.712 13.0533 107.863V107.881ZM13.0533 107.863C13.0566 107.873 13.0566 107.883 13.0533 107.893H13.0836V107.845L13.0533 107.863ZM51.0888 215.137C42.8914 205.22 35.5326 194.635 29.089 183.491C23.7527 174.321 19.351 164.635 15.9507 154.581C13.1888 146.485 11.4869 138.064 10.8878 129.529C10.3362 122.244 11.0776 114.919 13.0775 107.893C12.5271 108.045 12.4726 108.585 12.3214 108.991C11.2266 111.758 10.1136 114.519 9.10339 117.316C5.84136 126.346 3.31472 135.627 1.54831 145.067C0.59123 149.823 0.0728678 154.656 -0.00021321 159.507C-0.0323721 164.457 0.35209 169.401 1.14908 174.287C2.17137 180.346 3.68458 186.312 5.67366 192.124C9.12764 202.159 13.5863 211.817 18.9812 220.95C26.4144 233.527 35.0637 245.34 44.804 256.219C54.8749 267.565 65.8539 278.065 77.6314 287.616C94.0984 301.067 111.987 312.664 130.977 322.2C143.253 328.391 156.032 333.524 169.176 337.544C176.587 339.793 184.125 341.598 191.75 342.949C194.242 343.386 196.748 343.76 199.269 344.072C201.543 344.357 203.836 344.557 206.122 344.721C208.796 344.915 211.475 345.121 214.149 345.158C217.692 345.281 221.239 345.192 224.771 344.891C226.44 344.709 228.116 344.679 229.779 344.466C233.15 344.062 236.498 343.48 239.809 342.725C245.364 341.487 250.755 339.595 255.868 337.089C268.6 330.695 280.52 322.79 291.369 313.542C291.502 313.42 291.829 313.335 291.642 312.977L290.662 313.584C282.387 318.832 273.271 321.678 263.653 323.085C261.669 323.371 259.667 323.54 257.671 323.765C254.384 324.11 251.079 324.25 247.775 324.184C244.956 324.141 242.125 324.117 239.306 323.88C236.488 323.644 233.687 323.377 230.88 323.055C226.604 322.557 222.357 321.842 218.141 320.98C209.567 319.216 201.109 316.924 192.815 314.118C176.983 308.747 161.657 301.978 147.018 293.89C125.269 281.969 104.887 267.692 86.239 251.316C73.5405 240.249 61.7757 228.148 51.0646 215.137H51.0888ZM73.7117 32.1562L73.5363 32.3261L73.8206 32.1866C73.7843 32.1866 73.742 32.1502 73.7178 32.1502L73.7117 32.1562ZM73.4456 32.3747C73.4456 32.3747 73.4456 32.4232 73.4093 32.4414L73.4698 32.405L73.5423 32.3201L73.4456 32.3747ZM344.848 233.746C344.85 233.762 344.85 233.778 344.848 233.794V233.758V233.746ZM104.519 135.39C96.5911 126.248 89.3547 116.526 82.8698 106.304C78.2549 99.0527 74.2759 91.4137 70.9776 83.4728C68.1286 76.4712 65.9328 69.2815 65.092 61.7279C64.6444 58.0039 64.6444 54.2396 65.092 50.5156C65.9389 43.9024 68.3645 38.0172 72.9556 33.1209C73.1133 32.9219 73.2454 32.7038 73.3488 32.4717C72.9914 32.6551 72.6441 32.8577 72.3084 33.0785C61.3934 40.9809 51.4127 50.1063 42.5599 60.2778C40.7347 62.3824 39.1576 64.691 37.8599 67.158C35.0722 72.5459 33.4247 78.4535 33.0207 84.5103C32.6929 88.9232 32.8287 93.3585 33.426 97.7429C34.0754 102.548 35.107 107.294 36.511 111.934C38.9689 119.973 42.1685 127.765 46.0682 135.208C51.7726 146.107 58.4068 156.49 65.8965 166.242C76.2135 179.751 87.6263 192.381 100.018 204.004C123.142 225.894 148.926 244.77 176.761 260.186C190.862 268.066 205.567 274.806 220.736 280.342C234.649 285.353 248.84 289.236 263.538 291.081C267.101 291.53 270.682 291.888 274.263 291.997C278.619 292.183 282.982 292.108 287.329 291.772C290.952 291.475 294.553 290.942 298.108 290.177C303.359 289.064 308.422 287.194 313.139 284.625C319.095 281.449 324.117 276.763 327.705 271.035C334.644 259.745 340.287 247.704 344.527 235.141C344.658 234.701 344.761 234.253 344.836 233.8C344.578 234.113 344.338 234.439 344.116 234.777C342.751 237.097 341.063 239.21 339.101 241.051C336.534 243.44 333.596 245.395 330.403 246.839C324.269 249.672 317.755 250.91 311.046 251.28C304.445 251.624 297.825 251.311 291.285 250.345C286.071 249.597 280.905 248.596 275.787 247.342C266.22 244.947 256.825 241.907 247.666 238.241C232.578 232.229 217.959 225.092 203.933 216.891C181.822 204.059 160.962 189.171 141.629 172.424C128.345 161.015 115.929 148.628 104.482 135.366L104.519 135.39ZM161.868 0.0728066C161.868 0.0728066 161.868 0.0242689 161.868 0L161.639 0.0364033C161.675 0.0364033 161.705 0.084941 161.741 0.084941C161.781 0.0967436 161.823 0.0967436 161.862 0.084941L161.868 0.0728066ZM304.03 53.9982C304.03 53.9982 304.09 53.9376 304.084 53.9254L303.945 53.7252C303.945 53.7252 303.891 53.798 303.903 53.8162C303.941 53.8797 303.983 53.9405 304.03 53.9982ZM257.895 19.4697C257.844 19.3914 257.774 19.3278 257.691 19.2852C257.608 19.2427 257.516 19.2226 257.423 19.227L257.895 19.4697ZM257.955 19.4697H257.895C257.895 19.4697 257.895 19.5122 257.895 19.5304H257.925L257.955 19.4697ZM258.53 19.7852L257.925 19.5304H257.895L258.5 19.7852H258.536H258.53ZM259.141 20.0461L258.536 19.7852H258.5L259.105 20.0339H259.141V20.0461ZM259.322 19.9793L259.141 20.0339H259.105L259.298 20.0825C259.298 20.04 259.298 19.9975 259.298 19.9611L259.322 19.9793ZM257.278 19.1967L256.993 19.0753L257.26 19.227H257.338L257.278 19.1967ZM335.145 105.958C335.51 104.811 335.633 103.6 335.508 102.402C335.371 101.114 335.124 99.8389 334.77 98.5923C333.912 95.8427 332.751 93.1974 331.31 90.7049C327.221 83.3672 322.619 76.3298 317.537 69.6456C313.913 64.865 310.043 60.2779 305.941 55.9033C305.736 55.691 305.596 55.3391 305.07 55.3512L305.633 56.1096C306.721 57.6264 307.841 59.1432 308.881 60.6782C309.706 61.9166 310.379 63.2511 310.883 64.6523C311.23 65.5507 311.412 66.5042 311.422 67.4674C311.472 68.27 311.22 69.0622 310.714 69.6863C310.208 70.3103 309.487 70.7204 308.693 70.8348C307.756 71.0342 306.793 71.0915 305.838 71.0046C303.988 70.806 302.163 70.4135 300.394 69.8337C296.165 68.4434 292.078 66.6516 288.188 64.4824C280.066 60.0494 272.356 54.8981 265.147 49.0899C259.717 44.8222 254.621 40.1428 249.904 35.0928C247.499 32.5472 245.319 29.7964 243.389 26.8717C242.431 25.4328 241.641 23.8875 241.036 22.2667C240.67 21.3239 240.496 20.3173 240.522 19.3059C240.521 18.6597 240.722 18.0295 241.098 17.5045C241.473 16.9796 242.004 16.5867 242.615 16.3815C242.965 16.2224 243.336 16.1161 243.716 16.066C245.049 15.9132 246.397 15.9459 247.721 16.1631C250.304 16.6725 252.831 17.4387 255.263 18.4504C255.747 18.6385 256.255 18.772 256.752 18.9297L257.078 19.0753L256.782 18.8994C256.334 18.6324 255.905 18.3291 255.445 18.0985C245.397 13.0387 234.88 8.97459 224.045 5.96407C218.897 4.53828 213.762 3.08215 208.372 2.65744C207.84 2.61497 207.314 2.59677 206.788 2.59677C205.499 2.60263 204.212 2.71219 202.94 2.9244C201.851 3.10002 200.802 3.4699 199.843 4.0165C198.888 4.52763 198.071 5.26513 197.463 6.16493C196.856 7.06473 196.477 8.09962 196.359 9.1797C196.121 11.4353 196.389 13.716 197.146 15.8536C198.029 18.5474 199.201 21.1371 200.642 23.5772C202.978 27.607 205.626 31.4471 208.56 35.0624C214.313 42.1879 220.581 48.8799 227.312 55.0843C241.783 68.5538 257.556 80.5451 274.396 90.8808C282.722 96.0868 291.415 100.678 300.406 104.617C305.83 107.042 311.471 108.946 317.253 110.302C320.329 111.041 323.492 111.353 326.653 111.23C328.381 111.169 330.079 110.757 331.643 110.017C332.496 109.626 333.255 109.054 333.867 108.341C334.479 107.628 334.93 106.79 335.188 105.885L335.145 105.958ZM353.939 179.444C354.044 172.198 353.7 164.951 352.911 157.748C352.403 153.167 351.701 148.61 350.842 144.084C350.679 143.247 350.473 142.422 350.292 141.585C350.157 141.836 350.095 142.119 350.11 142.404C350.066 143.506 349.967 144.606 349.814 145.698C349.542 147.39 348.917 149.004 347.979 150.436C347.04 151.868 345.81 153.084 344.37 154.004C343.042 154.868 341.595 155.532 340.075 155.976C337.599 156.709 335.035 157.101 332.454 157.141C327.328 157.167 322.217 156.57 317.234 155.363C310.52 153.802 303.936 151.725 297.539 149.15C286.596 144.778 275.976 139.632 265.758 133.752C248.94 124.163 232.892 113.274 217.76 101.183C205.138 91.2366 193.244 80.395 182.169 68.7416C175.47 61.7356 169.274 54.2623 163.629 46.3778C160.112 41.5059 157.016 36.3422 154.374 30.9428C152.714 27.5853 151.426 24.0553 150.533 20.4162C149.74 17.3904 149.563 14.2353 150.013 11.1394C150.274 9.29956 150.951 7.54391 151.992 6.00658C153.033 4.46924 154.41 3.19088 156.019 2.26914C157.119 1.69298 158.25 1.17849 159.407 0.728066C159.697 0.600654 160.011 0.503579 160.616 0.279092C160.344 0.279092 160.084 0.248756 159.836 0.248756C158.943 0.278241 158.053 0.355201 157.168 0.47931C154.785 0.721999 152.426 1.08603 150.061 1.39546C146.704 1.88084 143.371 2.50576 140.05 3.21562C133.314 4.60534 126.667 6.39632 120.143 8.57904C118.095 9.2367 116.14 10.1542 114.324 11.3093C110.429 13.761 107.534 17.5257 106.158 21.9269C105.236 24.9651 104.854 28.142 105.027 31.3129C105.21 35.3072 105.905 39.2612 107.096 43.0772C108.725 48.4066 110.86 53.5671 113.471 58.488C117.555 66.215 122.254 73.5985 127.523 80.5666C135.49 91.1543 144.206 101.153 153.606 110.484C171.111 127.938 190.181 143.739 210.574 157.687C225.207 167.811 240.546 176.866 256.473 184.783C267.4 190.271 278.723 194.926 290.347 198.707C299.995 201.79 309.788 204.168 319.938 204.835C324.995 205.245 330.083 204.955 335.061 203.974C338.029 203.389 340.887 202.339 343.529 200.861C349.645 197.373 352.917 192.033 353.812 185.087C353.99 183.221 354.069 181.348 354.048 179.474" fill="#43B02A"/>
</g>
<defs>
<clipPath id="clip0">
<rect width="354" height="356" fill="white"/>
</clipPath>
</defs>
</svg>
